<svg width="786" height="88" viewBox="0 0 786 88" fill="none" xmlns="http://www.w3.org/2000/svg">
<path d="M9.31209 7.2V14.592H22.2721C24.4321 14.592 25.7761 13.44 25.7761 10.896C25.7761 8.736 24.8161 7.2 20.9761 7.2H9.31209ZM8.41618e-05 35.232V0.959998H25.7281C30.7201 0.959998 35.3761 3.264 35.3761 9.6C35.3761 12.288 34.0321 15.456 30.8161 16.464V16.56C34.8481 17.184 36.9121 21.216 36.9121 24.864C36.9121 29.424 34.7521 35.232 24.4321 35.232H8.41618e-05ZM9.31209 20.544V28.704H23.0401C25.9201 28.704 27.0241 26.832 27.0241 24.672C27.0241 21.936 25.3921 20.544 22.0801 20.544H9.31209ZM50.6243 18.096C50.6243 23.424 53.6003 29.664 62.0483 29.664C70.4963 29.664 73.4723 23.424 73.4723 18.096C73.4723 12.768 70.4963 6.528 62.0483 6.528C53.6003 6.528 50.6243 12.768 50.6243 18.096ZM40.7363 18.096C40.7363 10.944 43.6163 -9.53674e-07 62.0483 -9.53674e-07C80.4803 -9.53674e-07 83.3603 10.944 83.3603 18.096C83.3603 25.248 80.4803 36.192 62.0483 36.192C43.6163 36.192 40.7363 25.248 40.7363 18.096ZM95.9525 18.096C95.9525 23.424 98.9285 29.664 107.376 29.664C115.824 29.664 118.8 23.424 118.8 18.096C118.8 12.768 115.824 6.528 107.376 6.528C98.9285 6.528 95.9525 12.768 95.9525 18.096ZM86.0645 18.096C86.0645 10.944 88.9445 -9.53674e-07 107.376 -9.53674e-07C125.808 -9.53674e-07 128.688 10.944 128.688 18.096C128.688 25.248 125.808 36.192 107.376 36.192C88.9445 36.192 86.0645 25.248 86.0645 18.096ZM142.625 15.696L158.561 0.959998H171.089L155.345 14.736L172.289 35.232H159.713L148.049 20.4L142.625 25.056V35.232H133.313V0.959998H142.625V15.696ZM175.078 35.232V0.959998H184.39V35.232H175.078ZM219.818 24.864V0.959998H228.842V35.232H218.714L200.042 11.328H199.946V35.232H190.922V0.959998H201.722L219.722 24.864H219.818ZM257.055 22.08V16.128H274.527V35.232H269.823L268.575 31.248C265.311 34.752 260.175 36.192 254.175 36.192C241.695 36.192 233.919 30.816 233.919 18.096C233.919 7.536 241.263 -9.53674e-07 254.175 -9.53674e-07C263.631 -9.53674e-07 272.655 2.784 274.335 12.192H263.967C262.527 7.776 258.639 6.528 255.231 6.528C246.783 6.528 243.807 12.768 243.807 18.096C243.807 23.424 246.783 29.664 255.231 29.664C260.367 29.664 264.207 27.744 265.359 22.08H257.055ZM325.861 35.232L323.077 28.176H307.333L304.549 35.232H294.517L309.589 0.959998H320.821L335.893 35.232H325.861ZM320.581 21.936L315.205 8.352L309.829 21.936H320.581ZM380.106 25.632L390.282 0.959998H403.962V35.232H394.938V7.776H394.842L383.994 35.232H376.218L365.37 7.776H365.274V35.232H356.25V0.959998H369.93L380.106 25.632ZM437.892 35.232L435.108 28.176H419.364L416.58 35.232H406.548L421.62 0.959998H432.852L447.924 35.232H437.892ZM432.612 21.936L427.236 8.352L421.86 21.936H432.612ZM479.412 24.864V0.959998H488.436V35.232H478.308L459.636 11.328H459.54V35.232H450.516V0.959998H461.316L479.316 24.864H479.412ZM522.361 35.232L519.577 28.176H503.833L501.049 35.232H491.017L506.089 0.959998H517.321L532.393 35.232H522.361ZM517.081 21.936L511.705 8.352L506.329 21.936H517.081ZM556.68 22.08V16.128H574.152V35.232H569.448L568.2 31.248C564.936 34.752 559.8 36.192 553.8 36.192C541.32 36.192 533.544 30.816 533.544 18.096C533.544 7.536 540.888 -9.53674e-07 553.8 -9.53674e-07C563.256 -9.53674e-07 572.28 2.784 573.96 12.192H563.592C562.152 7.776 558.264 6.528 554.856 6.528C546.408 6.528 543.432 12.768 543.432 18.096C543.432 23.424 546.408 29.664 554.856 29.664C559.992 29.664 563.832 27.744 564.984 22.08H556.68ZM580.313 35.232V0.959998H612.329V7.488H589.625V14.592H611.177V20.832H589.625V28.704H612.521V35.232H580.313ZM641.528 25.632L651.704 0.959998H665.384V35.232H656.36V7.776H656.264L645.416 35.232H637.64L626.792 7.776H626.696V35.232H617.672V0.959998H631.352L641.528 25.632ZM671.906 35.232V0.959998H703.922V7.488H681.218V14.592H702.77V20.832H681.218V28.704H704.114V35.232H671.906ZM738.162 24.864V0.959998H747.186V35.232H737.058L718.386 11.328H718.29V35.232H709.266V0.959998H720.066L738.066 24.864H738.162ZM763.111 35.232V7.488H750.391V0.959998H785.143V7.488H772.423V35.232H763.111Z" fill="white"/>
<path d="M185.793 68.872H183.129C182.733 64.48 179.205 63.328 175.065 63.328C170.925 63.328 167.793 64.984 167.793 67.864C167.793 71.212 170.961 72.004 177.189 73.048C181.869 73.804 186.549 74.956 186.549 79.852C186.549 86.188 180.825 87.88 175.821 87.88C169.305 87.88 164.553 85.648 164.157 78.736H166.821C167.289 84.1 170.889 85.432 175.821 85.432C179.673 85.432 183.669 84.352 183.669 80.32C183.669 76.396 178.989 75.928 174.309 75.172C168.153 74.2 164.913 72.472 164.913 68.332C164.913 62.716 170.061 60.88 175.065 60.88C180.321 60.88 185.613 62.752 185.793 68.872ZM191.624 74.38C191.624 82.156 197.06 85.432 202.712 85.432C208.364 85.432 213.8 82.156 213.8 74.38C213.8 66.604 208.364 63.328 202.712 63.328C197.06 63.328 191.624 66.604 191.624 74.38ZM188.744 74.38C188.744 65.308 195.404 60.88 202.712 60.88C210.02 60.88 216.68 65.308 216.68 74.38C216.68 83.452 210.02 87.88 202.712 87.88C195.404 87.88 188.744 83.452 188.744 74.38ZM243.52 61.528V77.296C243.52 82.012 242.224 87.88 232.036 87.88C221.848 87.88 220.552 82.012 220.552 77.296V61.528H223.216V77.296C223.216 84.028 227.572 85.432 232.036 85.432C236.5 85.432 240.856 84.028 240.856 77.296V61.528H243.52ZM271.252 77.44H273.916C273.34 83.2 268.588 87.88 261.208 87.88C252.82 87.88 247.528 82.624 247.528 74.38C247.528 68.476 251.128 60.88 261.208 60.88C266.788 60.88 272.944 63.436 273.7 70.204H271.036C270.28 65.308 265.852 63.328 261.208 63.328C254.836 63.328 250.408 66.892 250.408 74.38C250.408 80.104 253.432 85.432 261.208 85.432C267.328 85.432 270.388 82.336 271.252 77.44ZM267.724 54.436L262.576 59.548H259.696L254.584 54.436H257.284L261.136 58.072L265.024 54.436H267.724ZM298.555 87.232L295.099 79.42H281.563L278.107 87.232H275.227L286.855 61.528H289.951L301.651 87.232H298.555ZM294.019 76.972L288.367 64.192L282.643 76.972H294.019ZM323.852 68.872H321.188C320.792 64.48 317.264 63.328 313.124 63.328C308.984 63.328 305.852 64.984 305.852 67.864C305.852 71.212 309.02 72.004 315.248 73.048C319.928 73.804 324.608 74.956 324.608 79.852C324.608 86.188 318.884 87.88 313.88 87.88C307.364 87.88 302.612 85.648 302.216 78.736H304.88C305.348 84.1 308.948 85.432 313.88 85.432C317.732 85.432 321.728 84.352 321.728 80.32C321.728 76.396 317.048 75.928 312.368 75.172C306.212 74.2 302.972 72.472 302.972 68.332C302.972 62.716 308.12 60.88 313.124 60.88C318.38 60.88 323.672 62.752 323.852 68.872ZM335.478 87.232L335.442 63.976H325.398V61.528H348.186V63.976H338.106L338.142 87.232H335.478ZM350.522 87.232L350.486 61.528H353.69L371.654 83.488H371.726V61.528H374.39L374.426 87.232H371.33L353.222 65.272H353.15L353.186 87.232H350.522ZM387.815 87.232L387.779 76.432L376.259 61.528H379.679L389.111 73.768L398.543 61.528H401.999L390.443 76.432L390.479 87.232H387.815ZM387.887 59.548L392.027 54.436H395.303L390.083 59.548H387.887ZM426.642 77.44H429.306C428.73 83.2 423.978 87.88 416.598 87.88C408.21 87.88 402.918 82.624 402.918 74.38C402.918 68.476 406.518 60.88 416.598 60.88C422.178 60.88 428.334 63.436 429.09 70.204H426.426C425.67 65.308 421.242 63.328 416.598 63.328C410.226 63.328 405.798 66.892 405.798 74.38C405.798 80.104 408.822 85.432 416.598 85.432C422.718 85.432 425.778 82.336 426.642 77.44ZM433.21 87.232L433.174 61.528H435.838V72.4H454.414V61.528H457.078L457.114 87.232H454.45L454.414 74.848H435.838L435.874 87.232H433.21ZM494.958 61.528V77.296C494.958 82.012 493.662 87.88 483.474 87.88C473.286 87.88 471.99 82.012 471.99 77.296V61.528H474.654V77.296C474.654 84.028 479.01 85.432 483.474 85.432C487.938 85.432 492.294 84.028 492.294 77.296V61.528H494.958ZM515.201 83.884L526.649 61.528H530.429L530.465 87.232H527.801L527.765 65.02H527.693L516.389 87.232H513.941L502.601 64.984H502.529L502.565 87.232H499.901L499.865 61.528H503.753L515.201 83.884ZM535.665 87.232L535.629 61.528H556.077V63.976H538.293V72.688H555.429V75.136H538.293V84.784H556.365L556.401 87.232H535.665ZM552.513 54.436L547.365 59.548H544.485L539.373 54.436H542.073L545.925 58.072L549.813 54.436H552.513ZM559.878 87.232L559.842 61.528H562.506V84.784H578.814L578.85 87.232H559.878ZM604.006 77.44H606.67C606.094 83.2 601.342 87.88 593.962 87.88C585.574 87.88 580.282 82.624 580.282 74.38C580.282 68.476 583.882 60.88 593.962 60.88C599.542 60.88 605.698 63.436 606.454 70.204H603.79C603.034 65.308 598.606 63.328 593.962 63.328C587.59 63.328 583.162 66.892 583.162 74.38C583.162 80.104 586.186 85.432 593.962 85.432C600.082 85.432 603.142 82.336 604.006 77.44ZM633.649 61.528V77.296C633.649 82.012 632.353 87.88 622.165 87.88C611.977 87.88 610.681 82.012 610.681 77.296V61.528H613.345V77.296C613.345 84.028 617.701 85.432 622.165 85.432C626.629 85.432 630.985 84.028 630.985 77.296V61.528H633.649ZM619.537 56.128C619.537 57.568 620.689 58.72 622.129 58.72C623.569 58.72 624.721 57.568 624.721 56.128C624.721 54.688 623.569 53.536 622.129 53.536C620.689 53.536 619.537 54.688 619.537 56.128ZM618.169 56.128C618.169 53.932 619.933 52.276 622.129 52.276C624.253 52.276 626.089 53.824 626.089 56.128C626.089 58.432 624.253 59.98 622.129 59.98C619.933 59.98 618.169 58.432 618.169 56.128Z" fill="white" fill-opacity="0.84"/>
</svg>
