<svg width="786" height="88" viewBox="0 0 786 88" fill="none" xmlns="http://www.w3.org/2000/svg">
<path d="M9.31209 7.2V14.592H22.2721C24.4321 14.592 25.7761 13.44 25.7761 10.896C25.7761 8.736 24.8161 7.2 20.9761 7.2H9.31209ZM8.41618e-05 35.232V0.959998H25.7281C30.7201 0.959998 35.3761 3.264 35.3761 9.6C35.3761 12.288 34.0321 15.456 30.8161 16.464V16.56C34.8481 17.184 36.9121 21.216 36.9121 24.864C36.9121 29.424 34.7521 35.232 24.4321 35.232H8.41618e-05ZM9.31209 20.544V28.704H23.0401C25.9201 28.704 27.0241 26.832 27.0241 24.672C27.0241 21.936 25.3921 20.544 22.0801 20.544H9.31209ZM50.6243 18.096C50.6243 23.424 53.6003 29.664 62.0483 29.664C70.4963 29.664 73.4723 23.424 73.4723 18.096C73.4723 12.768 70.4963 6.528 62.0483 6.528C53.6003 6.528 50.6243 12.768 50.6243 18.096ZM40.7363 18.096C40.7363 10.944 43.6163 -9.53674e-07 62.0483 -9.53674e-07C80.4803 -9.53674e-07 83.3603 10.944 83.3603 18.096C83.3603 25.248 80.4803 36.192 62.0483 36.192C43.6163 36.192 40.7363 25.248 40.7363 18.096ZM95.9525 18.096C95.9525 23.424 98.9285 29.664 107.376 29.664C115.824 29.664 118.8 23.424 118.8 18.096C118.8 12.768 115.824 6.528 107.376 6.528C98.9285 6.528 95.9525 12.768 95.9525 18.096ZM86.0645 18.096C86.0645 10.944 88.9445 -9.53674e-07 107.376 -9.53674e-07C125.808 -9.53674e-07 128.688 10.944 128.688 18.096C128.688 25.248 125.808 36.192 107.376 36.192C88.9445 36.192 86.0645 25.248 86.0645 18.096ZM142.625 15.696L158.561 0.959998H171.089L155.345 14.736L172.289 35.232H159.713L148.049 20.4L142.625 25.056V35.232H133.313V0.959998H142.625V15.696ZM175.078 35.232V0.959998H184.39V35.232H175.078ZM219.818 24.864V0.959998H228.842V35.232H218.714L200.042 11.328H199.946V35.232H190.922V0.959998H201.722L219.722 24.864H219.818ZM257.055 22.08V16.128H274.527V35.232H269.823L268.575 31.248C265.311 34.752 260.175 36.192 254.175 36.192C241.695 36.192 233.919 30.816 233.919 18.096C233.919 7.536 241.263 -9.53674e-07 254.175 -9.53674e-07C263.631 -9.53674e-07 272.655 2.784 274.335 12.192H263.967C262.527 7.776 258.639 6.528 255.231 6.528C246.783 6.528 243.807 12.768 243.807 18.096C243.807 23.424 246.783 29.664 255.231 29.664C260.367 29.664 264.207 27.744 265.359 22.08H257.055ZM325.861 35.232L323.077 28.176H307.333L304.549 35.232H294.517L309.589 0.959998H320.821L335.893 35.232H325.861ZM320.581 21.936L315.205 8.352L309.829 21.936H320.581ZM380.106 25.632L390.282 0.959998H403.962V35.232H394.938V7.776H394.842L383.994 35.232H376.218L365.37 7.776H365.274V35.232H356.25V0.959998H369.93L380.106 25.632ZM437.892 35.232L435.108 28.176H419.364L416.58 35.232H406.548L421.62 0.959998H432.852L447.924 35.232H437.892ZM432.612 21.936L427.236 8.352L421.86 21.936H432.612ZM479.412 24.864V0.959998H488.436V35.232H478.308L459.636 11.328H459.54V35.232H450.516V0.959998H461.316L479.316 24.864H479.412ZM522.361 35.232L519.577 28.176H503.833L501.049 35.232H491.017L506.089 0.959998H517.321L532.393 35.232H522.361ZM517.081 21.936L511.705 8.352L506.329 21.936H517.081ZM556.68 22.08V16.128H574.152V35.232H569.448L568.2 31.248C564.936 34.752 559.8 36.192 553.8 36.192C541.32 36.192 533.544 30.816 533.544 18.096C533.544 7.536 540.888 -9.53674e-07 553.8 -9.53674e-07C563.256 -9.53674e-07 572.28 2.784 573.96 12.192H563.592C562.152 7.776 558.264 6.528 554.856 6.528C546.408 6.528 543.432 12.768 543.432 18.096C543.432 23.424 546.408 29.664 554.856 29.664C559.992 29.664 563.832 27.744 564.984 22.08H556.68ZM580.313 35.232V0.959998H612.329V7.488H589.625V14.592H611.177V20.832H589.625V28.704H612.521V35.232H580.313ZM641.528 25.632L651.704 0.959998H665.384V35.232H656.36V7.776H656.264L645.416 35.232H637.64L626.792 7.776H626.696V35.232H617.672V0.959998H631.352L641.528 25.632ZM671.906 35.232V0.959998H703.922V7.488H681.218V14.592H702.77V20.832H681.218V28.704H704.114V35.232H671.906ZM738.162 24.864V0.959998H747.186V35.232H737.058L718.386 11.328H718.29V35.232H709.266V0.959998H720.066L738.066 24.864H738.162ZM763.111 35.232V7.488H750.391V0.959998H785.143V7.488H772.423V35.232H763.111Z" fill="white"/>
<path d="M197.131 68.872H194.467C194.071 64.48 190.543 63.328 186.403 63.328C182.263 63.328 179.131 64.984 179.131 67.864C179.131 71.212 182.299 72.004 188.527 73.048C193.207 73.804 197.887 74.956 197.887 79.852C197.887 86.188 192.163 87.88 187.159 87.88C180.643 87.88 175.891 85.648 175.495 78.736H178.159C178.627 84.1 182.227 85.432 187.159 85.432C191.011 85.432 195.007 84.352 195.007 80.32C195.007 76.396 190.327 75.928 185.647 75.172C179.491 74.2 176.251 72.472 176.251 68.332C176.251 62.716 181.399 60.88 186.403 60.88C191.659 60.88 196.951 62.752 197.131 68.872ZM202.962 74.38C202.962 82.156 208.398 85.432 214.05 85.432C219.702 85.432 225.138 82.156 225.138 74.38C225.138 66.604 219.702 63.328 214.05 63.328C208.398 63.328 202.962 66.604 202.962 74.38ZM200.082 74.38C200.082 65.308 206.742 60.88 214.05 60.88C221.358 60.88 228.018 65.308 228.018 74.38C228.018 83.452 221.358 87.88 214.05 87.88C206.742 87.88 200.082 83.452 200.082 74.38ZM254.858 61.528V77.296C254.858 82.012 253.562 87.88 243.374 87.88C233.186 87.88 231.89 82.012 231.89 77.296V61.528H234.554V77.296C234.554 84.028 238.91 85.432 243.374 85.432C247.838 85.432 252.194 84.028 252.194 77.296V61.528H254.858ZM282.59 77.44H285.254C284.678 83.2 279.926 87.88 272.546 87.88C264.158 87.88 258.866 82.624 258.866 74.38C258.866 68.476 262.466 60.88 272.546 60.88C278.126 60.88 284.282 63.436 285.038 70.204H282.374C281.618 65.308 277.19 63.328 272.546 63.328C266.174 63.328 261.746 66.892 261.746 74.38C261.746 80.104 264.77 85.432 272.546 85.432C278.666 85.432 281.726 82.336 282.59 77.44ZM279.062 54.436L273.914 59.548H271.034L265.922 54.436H268.622L272.474 58.072L276.362 54.436H279.062ZM309.893 87.232L306.437 79.42H292.901L289.445 87.232H286.565L298.193 61.528H301.289L312.989 87.232H309.893ZM305.357 76.972L299.705 64.192L293.981 76.972H305.357ZM335.189 68.872H332.525C332.129 64.48 328.601 63.328 324.461 63.328C320.321 63.328 317.189 64.984 317.189 67.864C317.189 71.212 320.357 72.004 326.585 73.048C331.265 73.804 335.945 74.956 335.945 79.852C335.945 86.188 330.221 87.88 325.217 87.88C318.701 87.88 313.949 85.648 313.553 78.736H316.217C316.685 84.1 320.285 85.432 325.217 85.432C329.069 85.432 333.065 84.352 333.065 80.32C333.065 76.396 328.385 75.928 323.705 75.172C317.549 74.2 314.309 72.472 314.309 68.332C314.309 62.716 319.457 60.88 324.461 60.88C329.717 60.88 335.009 62.752 335.189 68.872ZM339.184 87.232L339.148 61.528H342.352L360.316 83.488H360.388V61.528H363.052L363.088 87.232H359.992L341.884 65.272H341.812L341.848 87.232H339.184ZM376.477 87.232L376.441 76.432L364.921 61.528H368.341L377.773 73.768L387.205 61.528H390.661L379.105 76.432L379.141 87.232H376.477ZM376.549 59.548L380.689 54.436H383.965L378.745 59.548H376.549ZM415.304 77.44H417.968C417.392 83.2 412.64 87.88 405.26 87.88C396.872 87.88 391.58 82.624 391.58 74.38C391.58 68.476 395.18 60.88 405.26 60.88C410.84 60.88 416.996 63.436 417.752 70.204H415.088C414.332 65.308 409.904 63.328 405.26 63.328C398.888 63.328 394.46 66.892 394.46 74.38C394.46 80.104 397.484 85.432 405.26 85.432C411.38 85.432 414.44 82.336 415.304 77.44ZM421.872 87.232L421.836 61.528H424.5V72.4H443.076V61.528H445.74L445.776 87.232H443.112L443.076 74.848H424.5L424.536 87.232H421.872ZM483.62 61.528V77.296C483.62 82.012 482.324 87.88 472.136 87.88C461.948 87.88 460.652 82.012 460.652 77.296V61.528H463.316V77.296C463.316 84.028 467.672 85.432 472.136 85.432C476.6 85.432 480.956 84.028 480.956 77.296V61.528H483.62ZM503.863 83.884L515.311 61.528H519.091L519.127 87.232H516.463L516.427 65.02H516.355L505.051 87.232H502.603L491.263 64.984H491.191L491.227 87.232H488.563L488.527 61.528H492.415L503.863 83.884ZM524.327 87.232L524.291 61.528H544.739V63.976H526.955V72.688H544.091V75.136H526.955V84.784H545.027L545.063 87.232H524.327ZM541.175 54.436L536.027 59.548H533.147L528.035 54.436H530.735L534.587 58.072L538.475 54.436H541.175ZM548.54 87.232L548.504 61.528H551.168V84.784H567.476L567.512 87.232H548.54ZM592.668 77.44H595.332C594.756 83.2 590.004 87.88 582.624 87.88C574.236 87.88 568.944 82.624 568.944 74.38C568.944 68.476 572.544 60.88 582.624 60.88C588.204 60.88 594.36 63.436 595.116 70.204H592.452C591.696 65.308 587.268 63.328 582.624 63.328C576.252 63.328 571.824 66.892 571.824 74.38C571.824 80.104 574.848 85.432 582.624 85.432C588.744 85.432 591.804 82.336 592.668 77.44ZM622.311 61.528V77.296C622.311 82.012 621.015 87.88 610.827 87.88C600.639 87.88 599.343 82.012 599.343 77.296V61.528H602.007V77.296C602.007 84.028 606.363 85.432 610.827 85.432C615.291 85.432 619.647 84.028 619.647 77.296V61.528H622.311ZM608.199 56.128C608.199 57.568 609.351 58.72 610.791 58.72C612.231 58.72 613.383 57.568 613.383 56.128C613.383 54.688 612.231 53.536 610.791 53.536C609.351 53.536 608.199 54.688 608.199 56.128ZM606.831 56.128C606.831 53.932 608.595 52.276 610.791 52.276C612.915 52.276 614.751 53.824 614.751 56.128C614.751 58.432 612.915 59.98 610.791 59.98C608.595 59.98 606.831 58.432 606.831 56.128Z" fill="white" fill-opacity="0.84"/>
</svg>
