<svg width="106" height="24" viewBox="0 0 106 24" fill="none" xmlns="http://www.w3.org/2000/svg">
<g filter="url(#filter0_d_182_156)">
<path d="M4.00001 16V1.72H17.34V4.44H7.88002V7.4H16.86V10H7.88002V13.28H17.42V16H4.00001ZM24.1064 16L17.7664 1.72H22.0264L26.1664 12.6L30.3064 1.72H34.5664L28.2264 16H24.1064ZM35.4844 16V1.72H48.8244V4.44H39.3644V7.4H48.3444V10H39.3644V13.28H48.9044V16H35.4844ZM63.0908 11.68V1.72H66.8508V16H62.6308L54.8508 6.04H54.8108V16H51.0508V1.72H55.5508L63.0508 11.68H63.0908ZM73.4864 16V4.44H68.1864V1.72H82.6664V4.44H77.3664V16H73.4864ZM88.48 16V11.02L82.16 1.72H86.72L90.42 7.94L94.12 1.72H98.68L92.36 11.02V16H88.48Z" fill="white"/>
</g>
<defs>
<filter id="filter0_d_182_156" x="-1.35999" y="0" width="111" height="24" filterUnits="userSpaceOnUse" color-interpolation-filters="sRGB">
<feFlood flood-opacity="0" result="BackgroundImageFix"/>
<feColorMatrix in="SourceAlpha" type="matrix" values="0 0 0 0 0 0 0 0 0 0 0 0 0 0 0 0 0 0 127 0" result="hardAlpha"/>
<feOffset dy="4"/>
<feGaussianBlur stdDeviation="2"/>
<feComposite in2="hardAlpha" operator="out"/>
<feColorMatrix type="matrix" values="0 0 0 0 0 0 0 0 0 0 0 0 0 0 0 0 0 0 0.25 0"/>
<feBlend mode="normal" in2="BackgroundImageFix" result="effect1_dropShadow_182_156"/>
<feBlend mode="normal" in="SourceGraphic" in2="effect1_dropShadow_182_156" result="shape"/>
</filter>
</defs>
</svg>
