<svg viewBox="0 0 240 240" xmlns="http://www.w3.org/2000/svg">
<rect width="240" height="240" rx="44" fill="#0a0a0a"/>
<g transform="translate(-41.2, 69.6) scale(1.37)" fill="#ffffff">
  <path d="M78.9809 73.6507H74.9398V54.9768C70.2068 55.9062 66.6235 60.0885 66.6235 65.09V73.5664H51.5691V71.5751C51.5691 61.2382 53.3091 51.4589 56.741 42.5058C60.0386 33.9055 64.8026 26.2897 70.9021 19.87C83.0771 7.05648 99.6977 0 117.7 0C135.703 0 152.324 7.05648 164.499 19.87C170.598 26.2897 175.364 33.9055 178.66 42.5058C182.092 51.4589 183.832 61.2382 183.832 71.5751V73.5664H181.84H168.306V57.407L160.23 48.8825V73.4252H156.248V62.2571H149.351V37.5835C147.739 37.9449 146.258 38.7538 145.057 39.95C143.379 41.6229 142.455 43.8483 142.455 46.2182V67.9711H138.472V52.8616L133.782 48.5967L129.803 52.4245L129.762 65.3154L125.779 65.3085V34.9192H122.929V34.9296L119.989 34.9141V58.2022H116.007V50.4882L112.141 50.5381V43.6761L103.773 43.6417V69.2929H99.7906V53.0922L93.7823 53.001V65.4153H89.7997V40.6333L85.8997 37.2048V44.7828L78.9706 49.2508V73.6438L78.9809 73.6507ZM172.292 69.5855H179.832C178.961 31.4495 153.103 3.98089 117.704 3.98089C82.3043 3.98089 56.4467 31.4495 55.5758 69.5837H62.6443V65.0882C62.6443 57.8648 68.0331 51.8754 75.0018 50.9306V47.0874L81.9309 42.6194V28.4101L93.7944 38.8382V49.0236L99.8027 49.1148V39.6488L116.017 39.7142V30.9143L118.965 30.9297L118.976 25.751H120.886V17.8804H124.869V25.7183L126.724 25.6873L126.719 30.9418H129.772V46.9445L133.717 43.1495L138.482 47.4832V46.2216C138.482 42.7863 139.823 39.5576 142.257 37.1326C144.68 34.7179 147.893 33.3909 151.313 33.3909C151.329 33.3909 151.344 33.3909 151.358 33.3909L153.342 33.3978V58.2796H156.256V38.895L172.295 55.8253V69.5889L172.292 69.5855Z"/>
</g>
</svg>
