<svg viewBox="-6 80 252 28" xmlns="http://www.w3.org/2000/svg">
<style>
  path { fill: #0a0a0a; }
  @media (prefers-color-scheme: dark) { path { fill: #ffffff; } }
</style>
<path d="M0 83.3665H4.64523V101.825H18.087V105.479H0V83.3665Z"/>
<path d="M20.037 83.3665H24.6822V105.479H20.037V83.3665Z"/>
<path d="M25.8285 83.3665H31.0314L38.2479 101.082L45.3095 83.3665H50.3265L40.6023 105.479H35.6783L25.8302 83.3665H25.8285Z"/>
<path d="M51.4692 83.3665H70.6715V86.8345H56.1162V92.4091H70.0846V95.8771H56.1162V102.009H70.9193V105.477H51.4692V83.3647V83.3665Z"/>
<path d="M84.0806 83.3665H96.0043C104.677 83.3665 106.813 88.3215 106.813 94.6396C106.813 99.3778 104.644 105.479 97.1196 105.479H84.0806V83.3665ZM88.7258 102.009H95.2608C98.6049 102.009 102.168 100.925 102.168 94.452C102.168 87.2665 97.6152 86.8328 95.0129 86.8328H88.7258V102.008V102.009Z"/>
<path d="M109.847 83.3665H114.492V105.479H109.847V83.3665Z"/>
<path d="M126.972 82.7469C130.378 82.7469 137.161 83.3665 137.78 89.7776H132.763C132.608 88.0427 131.059 86.2166 127.189 86.2166C124.092 86.2166 122.048 87.146 122.048 89.2509C122.048 94.4847 138.524 89.4368 138.524 98.9131C138.524 104.612 132.608 106.099 127.901 106.099C119.941 106.099 116.783 102.971 116.69 98.3245H121.707C121.831 101.268 124.216 102.629 128.056 102.629C130.905 102.629 133.507 101.762 133.507 99.3778C133.507 93.8961 117.217 98.6653 117.217 89.5917C117.217 84.6366 121.583 82.7469 126.972 82.7469Z"/>
<path d="M146.763 86.8345H138.462V83.3665H159.707V86.8345H151.408V105.479H146.763V86.8345Z"/>
<path d="M161.347 83.3665H175.347C180.983 83.3665 182.811 85.9068 182.811 89.3748C182.811 92.2542 181.262 94.051 179.157 94.7016V94.7635C181.759 95.3212 182.379 97.581 182.379 100.741C182.379 101.825 182.41 104.24 183.308 105.479H178.291C177.951 104.859 177.734 103.744 177.734 102.135C177.734 99.0078 177.269 96.7463 173.894 96.7463H165.996V105.479H161.351V83.3665H161.347ZM174.014 93.2765C176.617 93.2765 177.978 92.502 177.978 90.0254C177.978 87.7019 176.491 86.8362 174.014 86.8362H165.992V93.2782H174.014V93.2765Z"/>
<path d="M185.967 83.3665H190.613V105.479H185.967V83.3665Z"/>
<path d="M212.694 91.5417C212.199 88.2286 209.505 86.2149 205.571 86.2149C201.266 86.2149 198.106 89.0633 198.106 94.8238C198.106 99.438 201.295 102.629 205.88 102.629C210.712 102.629 212.292 99.3778 212.694 97.0233H217.711C217.061 101.39 214.15 106.097 205.075 106.097C197.055 106.097 193.275 100.646 193.275 94.421C193.275 88.1958 196.96 82.7451 205.633 82.7451C213.252 82.7451 217.216 86.7398 217.711 91.5399H212.694V91.5417Z"/>
<path d="M226.878 86.8345H218.577V83.3665H239.822V86.8345H231.523V105.479H226.878V86.8345Z"/>
</svg>
