<svg width="124" height="25" viewBox="0 0 124 25" fill="none" xmlns="http://www.w3.org/2000/svg">
<g filter="url(#filter0_d_182_155)">
<path d="M7.88002 7.86L14.52 1.72H19.74L13.18 7.46L20.24 16H15L10.14 9.82L7.88002 11.76V16H4.00001V1.72H7.88002V7.86ZM24.7224 8.86C24.7224 11.08 25.9624 13.68 29.4824 13.68C33.0024 13.68 34.2424 11.08 34.2424 8.86C34.2424 6.64 33.0024 4.04 29.4824 4.04C25.9624 4.04 24.7224 6.64 24.7224 8.86ZM20.6024 8.86C20.6024 5.88 21.8024 1.32 29.4824 1.32C37.1624 1.32 38.3624 5.88 38.3624 8.86C38.3624 11.84 37.1624 16.4 29.4824 16.4C21.8024 16.4 20.6024 11.84 20.6024 8.86ZM52.3291 11.68V1.72H56.0891V16H51.8691L44.0891 6.04H44.0491V16H40.2891V1.72H44.7891L52.2891 11.68H52.3291ZM62.7247 16V4.44H57.4247V1.72H71.9047V4.44H66.6047V16H62.7247ZM83.9161 16L82.7561 13.06H76.1961L75.0361 16H70.8561L77.1361 1.72H81.8161L88.0961 16H83.9161ZM81.7161 10.46L79.4761 4.8L77.2361 10.46H81.7161ZM93.0558 7.86L99.6958 1.72H104.916L98.3558 7.46L105.416 16H100.176L95.3158 9.82L93.0558 11.76V16H89.1758V1.72H93.0558V7.86ZM110.498 16V4.44H105.198V1.72H119.678V4.44H114.378V16H110.498Z" fill="white"/>
</g>
<defs>
<filter id="filter0_d_182_155" x="-1.35999" y="0" width="126" height="24.4" filterUnits="userSpaceOnUse" color-interpolation-filters="sRGB">
<feFlood flood-opacity="0" result="BackgroundImageFix"/>
<feColorMatrix in="SourceAlpha" type="matrix" values="0 0 0 0 0 0 0 0 0 0 0 0 0 0 0 0 0 0 127 0" result="hardAlpha"/>
<feOffset dy="4"/>
<feGaussianBlur stdDeviation="2"/>
<feComposite in2="hardAlpha" operator="out"/>
<feColorMatrix type="matrix" values="0 0 0 0 0 0 0 0 0 0 0 0 0 0 0 0 0 0 0.25 0"/>
<feBlend mode="normal" in2="BackgroundImageFix" result="effect1_dropShadow_182_155"/>
<feBlend mode="normal" in="SourceGraphic" in2="effect1_dropShadow_182_155" result="shape"/>
</filter>
</defs>
</svg>
