<svg width="281" height="27" viewBox="0 0 281 27" fill="none" xmlns="http://www.w3.org/2000/svg">
<g filter="url(#filter0_d_182_154)">
<path d="M16.0399 14.1V4.14001H19.7999V18.42H15.5799L7.79989 8.46001H7.75989V18.42H3.99989V4.14001H8.49989L15.9999 14.1H16.0399ZM22.5155 18.42V4.14001H35.8555V6.86001H26.3955V9.82001H35.3755V12.42H26.3955V15.7H35.9355V18.42H22.5155ZM42.6219 18.42L36.2819 4.14001H40.5419L44.6819 15.02L48.8219 4.14001H53.0819L46.7419 18.42H42.6219ZM64.3261 18.42L63.1661 15.48H56.6061L55.4461 18.42H51.2661L57.5461 4.14001H62.2261L68.5061 18.42H64.3261ZM62.1261 12.88L59.8861 7.22001L57.6461 12.88H62.1261ZM57.7661 2.84001L59.5461 1.21593e-05H63.8461L60.9661 2.84001H57.7661ZM68.5458 18.42V15.94L77.9858 6.86001H69.1858V4.14001H83.0858V6.62001L73.6458 15.7H83.0858V18.42H68.5458ZM96.1816 18.42L95.0216 15.48H88.4616L87.3016 18.42H83.1216L89.4016 4.14001H94.0816L100.362 18.42H96.1816ZM93.9816 12.88L91.7416 7.22001L89.5016 12.88H93.9816ZM113.481 14.1V4.14001H117.241V18.42H113.021L105.241 8.46001H105.201V18.42H101.441V4.14001H105.941L113.441 14.1H113.481ZM131.377 18.42L130.217 15.48H123.657L122.497 18.42H118.317L124.597 4.14001H129.277L135.557 18.42H131.377ZM129.177 12.88L126.937 7.22001L124.697 12.88H129.177ZM124.817 2.84001L126.597 1.21593e-05H130.897L128.017 2.84001H124.817ZM144.039 18.42V4.14001H153.639C157.699 4.14001 158.679 6.56001 158.679 8.48001C158.679 11.54 157.079 13.32 153.939 13.32H147.919V18.42H144.039ZM147.919 6.74001V10.72H152.079C153.279 10.72 154.679 10.68 154.679 8.76001C154.679 6.90001 153.539 6.74001 152.439 6.74001H147.919ZM164.019 11.28C164.019 13.5 165.259 16.1 168.779 16.1C172.299 16.1 173.539 13.5 173.539 11.28C173.539 9.06001 172.299 6.46001 168.779 6.46001C165.259 6.46001 164.019 9.06001 164.019 11.28ZM159.899 11.28C159.899 8.30001 161.099 3.74001 168.779 3.74001C176.459 3.74001 177.659 8.30001 177.659 11.28C177.659 14.26 176.459 18.82 168.779 18.82C161.099 18.82 159.899 14.26 159.899 11.28ZM179.586 18.42V4.14001H189.186C193.246 4.14001 194.226 6.56001 194.226 8.48001C194.226 11.54 192.626 13.32 189.486 13.32H183.466V18.42H179.586ZM183.466 6.74001V10.72H187.626C188.826 10.72 190.226 10.68 190.226 8.76001C190.226 6.90001 189.086 6.74001 187.986 6.74001H183.466ZM200.166 18.42V6.86001H194.866V4.14001H209.346V6.86001H204.046V18.42H200.166ZM221.357 18.42L220.197 15.48H213.637L212.477 18.42H208.297L214.577 4.14001H219.257L225.537 18.42H221.357ZM219.157 12.88L216.917 7.22001L214.677 12.88H219.157ZM214.797 2.84001L216.577 1.21593e-05H220.877L217.997 2.84001H214.797ZM230.415 18.42L224.075 4.14001H228.335L232.475 15.02L236.615 4.14001H240.875L234.535 18.42H230.415ZM245.673 10.28L252.313 4.14001H257.533L250.973 9.88001L258.033 18.42H252.793L247.933 12.24L245.673 14.18V18.42H241.793V4.14001H245.673V10.28ZM270.615 18.42L269.455 15.48H262.895L261.735 18.42H257.555L263.835 4.14001H268.515L274.795 18.42H270.615ZM268.415 12.88L266.175 7.22001L263.935 12.88H268.415Z" fill="white"/>
</g>
<defs>
<filter id="filter0_d_182_154" x="-1.36011" y="0" width="286" height="26.82" filterUnits="userSpaceOnUse" color-interpolation-filters="sRGB">
<feFlood flood-opacity="0" result="BackgroundImageFix"/>
<feColorMatrix in="SourceAlpha" type="matrix" values="0 0 0 0 0 0 0 0 0 0 0 0 0 0 0 0 0 0 127 0" result="hardAlpha"/>
<feOffset dy="4"/>
<feGaussianBlur stdDeviation="2"/>
<feComposite in2="hardAlpha" operator="out"/>
<feColorMatrix type="matrix" values="0 0 0 0 0 0 0 0 0 0 0 0 0 0 0 0 0 0 0.25 0"/>
<feBlend mode="normal" in2="BackgroundImageFix" result="effect1_dropShadow_182_154"/>
<feBlend mode="normal" in="SourceGraphic" in2="effect1_dropShadow_182_154" result="shape"/>
</filter>
</defs>
</svg>
