<svg width="60" height="27" viewBox="0 0 60 27" fill="none" xmlns="http://www.w3.org/2000/svg">
<g filter="url(#filter0_d_182_158)">
<path d="M9.30002 18.42V6.86001H4.00002V4.14001H18.48V6.86001H13.18V18.42H9.30002ZM24.2936 18.42V13.44L17.9736 4.14001H22.5336L26.2336 10.36L29.9336 4.14001H34.4936L28.1736 13.44V18.42H24.2936ZM24.9536 2.84001L26.7336 1.21593e-05H31.0336L28.1536 2.84001H24.9536ZM45.32 14.42L49.56 4.14001H55.26V18.42H51.5V6.98001H51.46L46.94 18.42H43.7L39.18 6.98001H39.14V18.42H35.38V4.14001H41.08L45.32 14.42Z" fill="white"/>
</g>
<defs>
<filter id="filter0_d_182_158" x="0" y="0" width="59.26" height="26.42" filterUnits="userSpaceOnUse" color-interpolation-filters="sRGB">
<feFlood flood-opacity="0" result="BackgroundImageFix"/>
<feColorMatrix in="SourceAlpha" type="matrix" values="0 0 0 0 0 0 0 0 0 0 0 0 0 0 0 0 0 0 127 0" result="hardAlpha"/>
<feOffset dy="4"/>
<feGaussianBlur stdDeviation="2"/>
<feComposite in2="hardAlpha" operator="out"/>
<feColorMatrix type="matrix" values="0 0 0 0 0 0 0 0 0 0 0 0 0 0 0 0 0 0 0.25 0"/>
<feBlend mode="normal" in2="BackgroundImageFix" result="effect1_dropShadow_182_158"/>
<feBlend mode="normal" in="SourceGraphic" in2="effect1_dropShadow_182_158" result="shape"/>
</filter>
</defs>
</svg>
