<svg width="101" height="27" viewBox="0 0 101 27" fill="none" xmlns="http://www.w3.org/2000/svg">
<g filter="url(#filter0_d_182_157)">
<path d="M4.00005 13.3V4.14001H7.88005V12.34C7.88005 13.74 7.92005 16.1 11.5 16.1C15.06 16.1 15.12 13.74 15.12 12.34V4.14001H19.0001V13.3C19.0001 14.9 18.8 18.82 11.5 18.82C4.20005 18.82 4.00005 14.9 4.00005 13.3ZM31.5024 14.42L35.7424 4.14001H41.4424V18.42H37.6824V6.98001H37.6424L33.1224 18.42H29.8824L25.3624 6.98001H25.3224V18.42H21.5624V4.14001H27.2624L31.5024 14.42ZM44.16 18.42V4.14001H57.5V6.86001H48.04V9.82001H57.02V12.42H48.04V15.7H57.58V18.42H44.16ZM56.0401 1.21593e-05L53.16 2.84001H48.52L45.64 1.21593e-05H49.4L50.98 1.62001L52.52 1.21593e-05H56.0401ZM59.7265 18.42V4.14001H63.6065V15.58H72.3065V18.42H59.7265ZM90.4 9.54001H86.22C85.86 7.48001 84.16 6.46001 82.14 6.46001C78.46 6.46001 77.68 9.34001 77.68 11.28C77.68 13.22 78.46 16.1 82.14 16.1C84 16.1 85.84 15.18 86.22 12.94H90.44C89.96 17.1 86.56 18.82 82 18.82C76.8 18.82 73.56 16.58 73.56 11.28C73.56 5.98001 76.8 3.74001 82 3.74001C85.46 3.74001 89.82 4.62001 90.4 9.54001ZM92.3046 18.42V4.14001H96.1846V18.42H92.3046Z" fill="white"/>
</g>
<defs>
<filter id="filter0_d_182_157" x="-1.19995" y="0" width="103" height="26.82" filterUnits="userSpaceOnUse" color-interpolation-filters="sRGB">
<feFlood flood-opacity="0" result="BackgroundImageFix"/>
<feColorMatrix in="SourceAlpha" type="matrix" values="0 0 0 0 0 0 0 0 0 0 0 0 0 0 0 0 0 0 127 0" result="hardAlpha"/>
<feOffset dy="4"/>
<feGaussianBlur stdDeviation="2"/>
<feComposite in2="hardAlpha" operator="out"/>
<feColorMatrix type="matrix" values="0 0 0 0 0 0 0 0 0 0 0 0 0 0 0 0 0 0 0.25 0"/>
<feBlend mode="normal" in2="BackgroundImageFix" result="effect1_dropShadow_182_157"/>
<feBlend mode="normal" in="SourceGraphic" in2="effect1_dropShadow_182_157" result="shape"/>
</filter>
</defs>
</svg>
